normalP091_grf.mot
version=1
nRows=17
nColumns=19
inDegrees=yes
endheader
time	1_ground_force_vx	1_ground_force_vy	1_ground_force_vz	1_ground_force_px	1_ground_force_py	1_ground_force_pz	1_ground_torque_x	1_ground_torque_y	1_ground_torque_z	2_ground_force_vx	2_ground_force_vy	2_ground_force_vz	2_ground_force_px	2_ground_force_py	2_ground_force_pz	2_ground_torque_x	2_ground_torque_y	2_ground_torque_z
            1.645000	          141.226863	          502.425326	          -12.866194	            0.288977	            0.002513	           -0.127868	            0.473065	            1.682963	           -0.043098	          -38.310452	          274.534130	          -21.258442	            0.807782	            0.000964	           -0.234135	           -0.003645	            0.026123	           -0.002023
            1.646000	          140.780485	          491.492892	          -12.592932	            0.289155	            0.002511	           -0.127244	            0.438387	            1.530496	           -0.039214	          -45.745046	          283.752328	          -21.265479	            0.811193	            0.000951	           -0.234121	            0.005628	           -0.034913	            0.002616
            1.647000	          140.355220	          481.917319	          -12.530819	            0.289167	            0.002511	           -0.127214	            0.421323	            1.446636	           -0.037615	          -54.955990	          297.934457	          -21.221136	            0.816062	            0.000936	           -0.235161	            0.021229	           -0.115092	            0.008198
            1.648000	          140.063755	          475.450339	          -12.124715	            0.289565	            0.002510	           -0.127579	            0.412032	            1.398655	           -0.035668	          -64.836699	          305.161333	          -20.589260	            0.818874	            0.000926	           -0.235166	            0.033824	           -0.159197	            0.010741
            1.649000	          139.522988	          469.862941	          -11.625076	            0.289604	            0.002512	           -0.128517	            0.428846	            1.444197	           -0.035731	          -74.106729	          303.276649	          -19.889060	            0.817921	            0.000930	           -0.235430	            0.024038	           -0.098372	            0.006451
            1.650000	          138.588061	          461.086348	          -11.408502	            0.289737	            0.002512	           -0.128417	            0.418330	            1.391796	           -0.034437	          -83.178831	          300.907510	          -18.819518	            0.818467	            0.000928	           -0.235332	            0.016012	           -0.057924	            0.003623
            1.651000	          137.368696	          449.760786	          -11.289849	            0.289433	            0.002511	           -0.127557	            0.371555	            1.216515	           -0.030537	          -92.438853	          305.732296	          -17.652221	            0.821339	            0.000918	           -0.235525	            0.032880	           -0.108746	            0.006279
            1.652000	          136.409738	          440.586208	          -11.173875	            0.289697	            0.002510	           -0.127614	            0.349362	            1.128396	           -0.028618	         -101.702728	          313.678125	          -16.822299	            0.824078	            0.000910	           -0.236405	            0.065525	           -0.202097	            0.010838
            1.653000	          135.549348	          433.323373	          -10.823852	            0.290027	            0.002510	           -0.128166	            0.347083	            1.109551	           -0.027715	         -109.168422	          316.420020	          -15.991200	            0.825705	            0.000904	           -0.236584	            0.082555	           -0.239283	            0.012093
            1.654000	          134.140179	          426.542305	          -10.251000	            0.289996	            0.002512	           -0.128896	            0.368679	            1.172334	           -0.028174	         -114.465303	          314.678460	          -15.448805	            0.825659	            0.000904	           -0.236351	            0.063322	           -0.174079	            0.008546
            1.655000	          133.033261	          416.730527	           -9.814540	            0.289973	            0.002511	           -0.128524	            0.362147	            1.134434	           -0.026717	         -117.566320	          313.729664	          -15.103975	            0.825682	            0.000904	           -0.236449	            0.052194	           -0.139282	            0.006706
            1.656000	          132.164995	          405.160863	           -9.535259	            0.290097	            0.002509	           -0.128036	            0.316039	            0.968838	           -0.022801	         -118.089713	          317.327359	          -14.769780	            0.826671	            0.000901	           -0.236584	            0.045704	           -0.122813	            0.005716
            1.657000	          131.369058	          394.549072	           -9.322611	            0.290153	            0.002509	           -0.127702	            0.281258	            0.844721	           -0.019960	         -114.737665	          321.871287	          -14.333762	            0.827091	            0.000900	           -0.236924	            0.053252	           -0.149387	            0.006653
            1.658000	          130.414898	          386.649205	           -8.882107	            0.290190	            0.002510	           -0.128222	            0.273758	            0.811628	           -0.018645	         -107.566318	          324.561798	          -13.703045	            0.826606	            0.000902	           -0.236850	            0.048732	           -0.147040	            0.006208
            1.659000	          128.908820	          378.433788	           -8.350846	            0.290004	            0.002512	           -0.128787	            0.285816	            0.839061	           -0.018515	          -98.347705	          325.170466	          -13.985214	            0.825615	            0.000907	           -0.237219	            0.039054	           -0.129125	            0.005554
            1.660000	          126.366635	          368.943336	           -7.930594	            0.290327	            0.002511	           -0.129115	            0.274612	            0.801763	           -0.017234	          -89.740146	          330.497255	          -13.907068	            0.825104	            0.000910	           -0.237698	            0.039591	           -0.145805	            0.006135
            1.661000	          124.111605	          358.578543	           -7.611082	            0.290116	            0.002510	           -0.128226	            0.250078	            0.722516	           -0.015336	          -82.293076	          343.338663	          -12.483618	            0.826400	            0.000908	           -0.238587	            0.059169	           -0.246863	            0.008976
